<?xml version="1.0" encoding="utf-8"?>
<!-- Generator: Adobe Illustrator 16.0.0, SVG Export Plug-In . SVG Version: 6.00 Build 0)  -->
<!DOCTYPE svg PUBLIC "-//W3C//DTD SVG 1.1//EN" "http://www.w3.org/Graphics/SVG/1.1/DTD/svg11.dtd">
<svg version="1.1" id="Capa_1" xmlns="http://www.w3.org/2000/svg" xmlns:xlink="http://www.w3.org/1999/xlink" x="0px" y="0px"
	 width="1280px" height="800px" viewBox="0 0 1280 800" enable-background="new 0 0 1280 800" xml:space="preserve">
<g>
	<path fill-rule="evenodd" clip-rule="evenodd" fill="#FDFDFD" d="M245.088,533.29c0-95.589,0-191.178,0-286.767
		c316.667,0,633.333,0,950,0c0,95.588,0,191.178,0,286.767C878.422,533.29,561.755,533.29,245.088,533.29z M314.556,301.38
		c-0.336,2.488-0.706,3.949-0.706,5.411c-0.034,44.705-0.032,89.409-0.031,134.113c0,1.224-0.152,2.502,0.15,3.662
		c1.117,4.284,37.348,34.473,41.904,34.463c30.057-0.058,60.115-0.229,90.17-0.556c13.424-0.145,27.708-13.899,27.542-28.681
		c-0.384-34.292-0.176-68.59-0.015-102.886c0.037-7.93-3.768-12.564-11.274-14.962c-2.465-0.786-5.847-0.122-6.48-4.085
		c-1.014-6.345-5.719-9.195-11.699-10.437c-2.213-0.462-4.495-0.561-4.815-3.413c-1.3-11.529-9.703-12.811-19.305-12.765
		c-27.215,0.126-54.432,0.104-81.648,0.133C330.527,301.388,322.703,301.38,314.556,301.38z M566.598,354.224
		c0.025,0,0.047,0,0.072,0c0,5.513-0.248,11.038,0.049,16.532c0.65,12.056,5.581,16.088,22.278,18.719
		c14.738,2.324,30.634-2.731,33.832-10.865c0.666-1.69,1.091-3.583,1.1-5.385c0.055-12.23,0.085-24.463-0.112-36.691
		c-0.12-7.436-4.691-11.986-11.677-13.853c-6.357-1.701-12.884-3.008-19.626-2.537c-20.736,1.445-25.901,6.736-25.916,26.733
		C566.597,349.325,566.598,351.776,566.598,354.224z M858.01,436.76c-0.051,0-0.098-0.002-0.145-0.002
		c0-5.813,0.359-11.653-0.07-17.439c-0.953-12.773-9.082-18.014-27.66-18.289c-19.027-0.282-28.512,4.933-29.395,17.471
		c-0.814,11.57-0.34,23.24-0.109,34.859c0.148,7.584,4.344,12.824,11.854,14.788c6.365,1.663,12.885,2.983,19.627,2.558
		c20.775-1.313,25.889-6.519,25.898-26.6C858.01,441.656,858.01,439.209,858.01,436.76z M909.496,425.617
		c-13.928-7.139-16.654-27.807-36.604-21.853c0,21.755,0,43.188,0,64.804c6.475,0.088,12.074,1.213,18.479-1.049
		c0-9.973,0-19.856,0-29.738c10.631,8.082,21.162,15.598,17.959,31.129c6.949-0.531,12.764,0.996,18.609-1.048
		c0-21.75,0-42.96,0-64.299c-6.305-1.032-11.867-1.058-18.443,0.091C909.496,410.586,909.496,417.479,909.496,425.617z
		 M1013.422,402.996c0,22.799,0,44.045,0,65.412c6.477,0.527,12.088,1.012,18.801-0.521c0-6.79,0-13.656,0-20.869
		c6.688-0.016,12.252-1.032,18.855,1.01c0,6.193-2.145,13.409,0.52,18.027c3.672,6.366,11.75,1.857,19.049,2.498
		c-1.494-13.332,6.252-27.695-9.549-36.781c8.016-14.286,3.063-27.303-11.451-28.564
		C1037.805,402.178,1025.795,402.996,1013.422,402.996z M493.871,436.181c0,8.86,0.095,17.72-0.042,26.577
		c-0.063,4.057,1.128,6.26,5.876,6.162c10.098-0.213,20.233,0.388,30.303-0.18c15.667-0.883,20.959-6.804,21.011-22.197
		c0.027-8.555,0.239-17.115-0.066-25.66c-0.316-8.875-4.466-14.684-14.192-16.658c-12.875-2.617-25.785-0.805-38.666-1.252
		c-4.738-0.165-4.19,3.652-4.208,6.631C493.83,418.464,493.865,427.324,493.871,436.181z M979.314,453.936
		c0,4.066-0.059,7.111,0.02,10.154c0.059,2.268,0.775,3.911,3.463,4.713c10.994,3.271,16.623-0.5,16.627-11.395
		c0.002-4.895,0.41-9.828-0.094-14.673c-1.416-13.589-6.15-26.696-13.811-37.568c-4.416-6.263-15.48-1.323-23.482-2.285
		c-0.932-0.11-1.893,0.028-2.842,0.012c-2.896-0.048-4.537,1.437-5.738,3.894c-9.504,19.406-14.896,39.462-10.566,61.376
		c5.5,1.157,11.051,0.979,16.416,0.156c3.57-4.458-0.129-9.958,2.969-14.384C967.568,453.936,972.818,453.936,979.314,453.936z
		 M506.299,387.977c3.042,0,6.184,0.002,9.326,0c7.28-0.002,14.613,0.517,21.826-0.153c7.592-0.708,16.026-2.149,17.472-11.181
		c3.075-19.192,1.391-29.123-18.933-29.314c-2.788-0.027-5.568-0.986-8.351-1.517c-2.877-0.549-3.367-2.357-2.606-5.081
		c8.528-3.251,18.074,0.886,26.623-2.438c2.22-16.309,2.22-16.309-13.716-16.309c-5.065,0-10.19-0.473-15.178,0.127
		c-7.233,0.868-15.615,1.927-17.213,10.329c-3.797,19.956-1.554,29.653,18.814,30.12c2.79,0.064,5.559,1.033,8.335,1.595
		c2.945,0.597,3.175,2.518,2.395,5.291c-7.556,2.05-15.492,0.894-23.29,0.852c-5.883-0.03-8.096,2.14-7.559,7.604
		C504.54,380.909,503.734,384.056,506.299,387.977z M1078.521,403.141c-0.322,13.763-2.832,26.715,8.127,37.791
		c5.998,6.064,10.949,12.847,9.916,22.701c-0.877,8.34,7.041,4.642,11.277,5.072c4.016,0.411,10.205,1.691,9.211-5.346
		c-1.266-8.964,3.01-15.566,8.768-21.213c11.602-11.367,9.311-24.951,8.395-39.315c-4.316,0-8.076-0.055-11.83,0.026
		c-1.834,0.039-3.66,0.335-5.402,0.506c-2.141,4.089-1.586,8.175-1.477,12.021c0.217,7.409-0.572,16.293-9.043,16.161
		c-7.574-0.117-8.355-9.061-8.289-16.059c0.123-12.801,0.004-12.806-13.396-12.611
		C1083.221,402.896,1081.662,403.004,1078.521,403.141z M563.857,452.021c-0.816,5.924-1.51,11.002,0.588,16.281
		c14.482,0,28.841,0,43.498,0c0.721-5.614,1.163-10.67,0.149-16.199c-3.985-0.525-7.604-1.002-11.417-1.504
		c0-10.102,0-19.775,0-29.046c3.845-2.274,8.201,0.269,11.951-3.265c-0.193-4.547,0.679-9.668-1.042-14.833
		c-14.547,0-28.916,0-43.136,0c-3.212,15.161-2.966,15.558,10.817,18.022c0,9.676,0,19.398,0,29.258
		C571.498,451.162,568.093,451.543,563.857,452.021z M743.35,418.803c3.691,3.021,8.602,0.097,11.836,3.172
		c0,9.428,0,18.777,0,28.005c-3.807,2.591-8.701-0.218-12.213,3.547c0.063,4.677-1.244,9.769,1.279,15.334
		c11.457,0,22.805-0.561,34.063,0.182c8.688,0.571,11.498-2.577,10.234-10.398c-0.332-2.042,0.502-4.282-1.047-5.983
		c-3.412-2.488-7.654-0.318-11.535-2.488c0-9.381,0-19.021,0-28.502c3.771-2.586,8.57,0.232,12.539-3.551
		c0-2.973-0.02-6.603,0.008-10.23c0.023-3.365-1.555-5.038-5.141-5.026c-13.154,0.046-26.307,0.02-40.023,0.02
		C743.35,408.735,743.35,413.502,743.35,418.803z M670.406,468.869c-4.459-6.736,5.48-17.07-9.054-17.576
		c-20.761-0.723-20.758-0.77-20.511-20.938c0.008-0.613,0.063-1.228-0.004-1.834c-0.666-5.994,2.352-8.069,8.287-8.198
		c6.438-0.144,13.111,1.45,19.926-1.513c-0.412-5.23,0.971-10.313-1.117-15.807c-9.418,0-18.577-0.648-27.598,0.155
		c-12.794,1.138-18.645,6.272-19.083,16.276c-0.48,10.973-0.361,21.988-0.021,32.973c0.244,7.864,4.509,12.779,12.744,14.828
		C645.213,470.035,656.428,468.377,670.406,468.869z M685.465,338.081c0-3.665-0.021-7.285,0.006-10.904
		c0.023-3.235-1.188-5.211-4.936-5.196c-13.807,0.051-27.613,0.021-41.637,0.021c0,22.564,0,44.017,0,65.46
		c6.469,0,12.032,0,18.737,0c0-7.325,0-14.162,0-21.544c4.593,0,8.079-0.358,11.458,0.073c7.465,0.951,8.563-2.582,9.047-8.965
		c0.707-9.368-4.879-8.909-11.261-8.689c-5.421,0.184-11.622,0.855-8.283-8.056C667.178,338.088,676.23,341.221,685.465,338.081z
		 M694.285,322.002c-3.311,15.635-3.311,15.635,16.359,18.624c0,15.459,0,31.157,0,46.667c20.885,1.936,20.803,1.936,20.477-16.619
		c-0.182-10.242-0.033-20.49-0.033-30.17c6.33-1.981,11.682,0.463,17.078-2.771c0-3.256-0.027-6.884,0.01-10.511
		c0.033-3.22-1.088-5.252-4.875-5.241C726.9,322.028,710.5,322.002,694.285,322.002z M695.262,420.977
		c0,13.452,0.527,26.578-0.186,39.639c-0.471,8.602,4.393,8.34,10.568,8.348c6.191,0.01,11.178,0.158,10.83-8.304
		c-0.539-13.089-0.145-26.214-0.145-39.058c5.721-2.572,11.506,0.436,16.623-2.719c0.168-1.33,0.318-2.826,0.545-4.314
		c1.33-8.74-1.271-12.853-11.639-11.938c-11.609,1.024-23.412,0.681-35.086,0.077c-7.494-0.385-9.68,2.501-8.783,9.02
		c0.359,2.618-0.822,5.529,2.021,8.211C684.52,420.244,689.467,420.582,695.262,420.977z"/>
	<path fill-rule="evenodd" clip-rule="evenodd" fill="#70D276" d="M314.556,301.38c8.147,0,15.971,0.007,23.794-0.002
		c27.216-0.029,54.433-0.007,81.648-0.133c9.603-0.046,18.005,1.236,19.305,12.765c0.32,2.853,2.602,2.951,4.815,3.413
		c5.979,1.242,10.685,4.092,11.699,10.437c0.633,3.963,4.015,3.299,6.48,4.085c7.507,2.398,11.312,7.033,11.274,14.962
		c-0.161,34.296-0.37,68.594,0.015,102.886c0.166,14.781-14.118,28.536-27.542,28.681c-30.055,0.327-60.113,0.498-90.17,0.556
		c-4.557,0.01-40.787-30.179-41.904-34.463c-0.303-1.16-0.15-2.438-0.15-3.662c-0.001-44.705-0.003-89.408,0.031-134.113
		C313.85,305.329,314.219,303.869,314.556,301.38z M322.493,374.655c-1.737,1.593-1.84,3.183,0.01,4.768
		c0.02,2.706,0.041,5.413,0.062,8.118c-1.931,1.556-1.918,3.142-0.08,4.758c0,14.855,0,29.712,0,45.035
		c34.728,0,67.889,0.072,101.049-0.057c6.921-0.027,7.647-4.82,7.632-10.268c-0.104-35.816-0.182-71.631,0.052-107.443
		c0.048-7.487-2.771-10.402-10.564-10.359c-30.37,0.172-60.741-0.04-91.111-0.078c-2.158-0.001-4.48-0.417-7.05,2.197
		C322.493,331.883,322.493,353.269,322.493,374.655z M457.446,340.74c0,3.85,0,7.162,0,10.476c0,27.526-0.457,55.063,0.167,82.579
		c0.382,16.814-11.489,29.513-29.713,29.133c-14.22-0.299-28.452-0.101-42.677-0.113c-11.586-0.01-23.174-0.002-35.463-0.002
		c2.095,5.537,5.177,7.845,10.2,7.828c27.503-0.091,55.011,0.162,82.507-0.332c13.417-0.24,22.393-8.717,22.542-21.326
		c0.395-33.642,0.158-67.288,0.148-100.933C465.157,344.087,464.338,340.653,457.446,340.74z M329.954,446.666
		c4.137,4.432,6.165,7.593,11.14,7.555c29.718-0.242,59.439-0.031,89.154-0.385c11.426-0.137,17.59-6.297,17.661-17.373
		c0.218-33.955,0.094-67.909,0.087-101.865c-0.001-4.143-0.371-8.11-6.192-8.677c-0.396,0.829-1.09,1.608-1.093,2.388
		c-0.1,32.025-0.105,64.047-0.195,96.073c-0.052,18.644-3.985,22.29-23.606,22.286C388.516,446.658,360.12,446.666,329.954,446.666z
		"/>
	<path fill-rule="evenodd" clip-rule="evenodd" fill="#404040" d="M566.598,354.224c0-2.448-0.001-4.898,0-7.347
		c0.015-19.998,5.18-25.288,25.916-26.733c6.742-0.471,13.269,0.836,19.626,2.537c6.985,1.867,11.557,6.417,11.677,13.853
		c0.198,12.229,0.167,24.461,0.112,36.691c-0.009,1.802-0.434,3.694-1.1,5.385c-3.198,8.134-19.094,13.189-33.832,10.865
		c-16.697-2.63-21.628-6.663-22.278-18.719c-0.297-5.495-0.049-11.02-0.049-16.532C566.645,354.224,566.624,354.224,566.598,354.224
		z M587.143,355.216c0,2.144,0.167,4.303-0.03,6.429c-0.579,6.243,0.205,10.555,8.714,10.408c7.919-0.138,8.643-4.142,8.349-10.017
		c-0.245-4.89-0.397-9.83,0.045-14.694c0.599-6.567-1.598-9.476-8.885-9.391c-6.888,0.082-8.951,2.903-8.245,8.998
		C587.405,349.672,587.143,352.458,587.143,355.216z"/>
	<path fill-rule="evenodd" clip-rule="evenodd" fill="#404040" d="M858.01,436.76c0,2.449,0,4.896,0,7.346
		c-0.01,20.081-5.123,25.287-25.898,26.6c-6.742,0.426-13.262-0.895-19.627-2.558c-7.51-1.964-11.705-7.204-11.854-14.788
		c-0.23-11.619-0.705-23.289,0.109-34.859c0.883-12.538,10.367-17.753,29.395-17.471c18.578,0.275,26.707,5.516,27.66,18.289
		c0.43,5.786,0.07,11.627,0.07,17.439C857.912,436.758,857.959,436.76,858.01,436.76z M837.859,435.645
		c0-2.14-0.162-4.289,0.033-6.411c0.561-6.151-0.152-10.542-8.561-10.554c-8.43-0.012-8.963,4.393-8.578,10.537
		c0.309,4.87,0.395,9.795-0.021,14.646c-0.512,5.985,1.256,9.046,8.107,9.113c6.865,0.066,10.025-2.195,9.082-9.098
		C837.551,441.178,837.859,438.39,837.859,435.645z"/>
	<path fill-rule="evenodd" clip-rule="evenodd" fill="#404040" d="M909.496,425.617c0-8.139,0-15.031,0-21.963
		c6.576-1.148,12.139-1.123,18.443-0.091c0,21.339,0,42.549,0,64.299c-5.846,2.044-11.66,0.517-18.609,1.048
		c3.203-15.531-7.328-23.047-17.959-31.129c0,9.882,0,19.766,0,29.738c-6.404,2.262-12.004,1.137-18.479,1.049
		c0-21.615,0-43.049,0-64.804C892.842,397.81,895.568,418.479,909.496,425.617z"/>
	<path fill-rule="evenodd" clip-rule="evenodd" fill="#404040" d="M1013.422,402.996c12.373,0,24.383-0.818,36.225,0.211
		c14.514,1.262,19.467,14.278,11.451,28.564c15.801,9.086,8.055,23.449,9.549,36.781c-7.299-0.641-15.377,3.868-19.049-2.498
		c-2.664-4.618-0.52-11.834-0.52-18.027c-6.604-2.042-12.168-1.025-18.855-1.01c0,7.213,0,14.079,0,20.869
		c-6.713,1.533-12.324,1.049-18.801,0.521C1013.422,447.041,1013.422,425.795,1013.422,402.996z M1033.051,419.16
		c-1.498,3.863-1.586,7.513,0.119,11.504c3.773-0.246,7.449,0.891,10.998-0.823c0.975-3.75,1.637-7.182-0.779-10.681
		C1040.027,419.16,1036.654,419.16,1033.051,419.16z"/>
	<path fill-rule="evenodd" clip-rule="evenodd" fill="#404040" d="M493.868,436.181c-0.003-8.856-0.039-17.717,0.019-26.577
		c0.018-2.979-0.529-6.796,4.208-6.631c12.88,0.447,25.79-1.365,38.666,1.252c9.726,1.975,13.876,7.783,14.192,16.658
		c0.305,8.545,0.093,17.105,0.066,25.66c-0.052,15.394-5.345,21.314-21.011,22.197c-10.07,0.567-20.205-0.033-30.303,0.18
		c-4.748,0.098-5.939-2.105-5.876-6.162C493.965,453.9,493.871,445.041,493.868,436.181z M513.592,451.21
		c6.487-0.22,14.44,3.554,16.788-2.848c2.958-8.063,3.586-18.091-0.447-25.823c-2.605-4.996-10.525-2.836-16.341-1.203
		C513.592,431.188,513.592,440.607,513.592,451.21z"/>
	<path fill-rule="evenodd" clip-rule="evenodd" fill="#404040" d="M979.314,453.936c-6.496,0-11.746,0-17.039,0
		c-3.098,4.426,0.602,9.926-2.969,14.384c-5.365,0.823-10.916,1.001-16.416-0.156c-4.33-21.914,1.063-41.97,10.566-61.376
		c1.201-2.457,2.842-3.941,5.738-3.894c0.949,0.017,1.91-0.122,2.842-0.012c8.002,0.962,19.066-3.978,23.482,2.285
		c7.66,10.872,12.395,23.979,13.811,37.568c0.504,4.845,0.096,9.778,0.094,14.673c-0.004,10.895-5.633,14.666-16.627,11.395
		c-2.688-0.802-3.404-2.445-3.463-4.713C979.256,461.047,979.314,458.002,979.314,453.936z M978.672,435.369
		c-3.563-5.146-0.711-14.785-8.609-14.756c-7.883,0.027-5.184,9.602-8.551,14.863C967.475,436.583,972.674,436.705,978.672,435.369z
		"/>
	<path fill-rule="evenodd" clip-rule="evenodd" fill="#404040" d="M506.299,387.977c-2.564-3.92-1.759-7.067-2.054-10.074
		c-0.538-5.465,1.676-7.635,7.559-7.604c7.798,0.042,15.733,1.198,23.29-0.852c0.781-2.773,0.551-4.694-2.395-5.291
		c-2.776-0.563-5.545-1.531-8.335-1.595c-20.368-0.467-22.611-10.164-18.814-30.12c1.598-8.401,9.98-9.46,17.213-10.329
		c4.988-0.6,10.113-0.127,15.178-0.127c15.936,0,15.936,0,13.716,16.309c-8.549,3.324-18.095-0.814-26.623,2.438
		c-0.76,2.723-0.271,4.531,2.606,5.081c2.782,0.531,5.563,1.49,8.351,1.517c20.323,0.192,22.008,10.123,18.933,29.314
		c-1.446,9.032-9.88,10.473-17.472,11.181c-7.212,0.67-14.545,0.151-21.826,0.153C512.483,387.979,509.34,387.977,506.299,387.977z"
		/>
	<path fill-rule="evenodd" clip-rule="evenodd" fill="#404040" d="M1078.521,403.141c3.141-0.137,4.699-0.244,6.256-0.266
		c13.4-0.194,13.52-0.189,13.396,12.611c-0.066,6.998,0.715,15.941,8.289,16.059c8.471,0.132,9.26-8.752,9.043-16.161
		c-0.109-3.846-0.664-7.932,1.477-12.021c1.742-0.171,3.568-0.467,5.402-0.506c3.754-0.081,7.514-0.026,11.83-0.026
		c0.916,14.364,3.207,27.948-8.395,39.315c-5.758,5.646-10.033,12.249-8.768,21.213c0.994,7.037-5.195,5.757-9.211,5.346
		c-4.236-0.431-12.154,3.268-11.277-5.072c1.033-9.854-3.918-16.637-9.916-22.701
		C1075.689,429.855,1078.199,416.903,1078.521,403.141z"/>
	<path fill-rule="evenodd" clip-rule="evenodd" fill="#404040" d="M563.857,452.021c4.236-0.479,7.641-0.859,11.408-1.285
		c0-9.859,0-19.582,0-29.258c-13.783-2.465-14.029-2.861-10.817-18.022c14.221,0,28.589,0,43.136,0
		c1.721,5.165,0.849,10.286,1.042,14.833c-3.75,3.533-8.105,0.99-11.951,3.265c0,9.271,0,18.944,0,29.046
		c3.813,0.502,7.432,0.979,11.417,1.504c1.013,5.529,0.571,10.585-0.149,16.199c-14.657,0-29.016,0-43.498,0
		C562.348,463.023,563.041,457.945,563.857,452.021z"/>
	<path fill-rule="evenodd" clip-rule="evenodd" fill="#404040" d="M743.35,418.803c0-5.301,0-10.067,0-15.921
		c13.717,0,26.869,0.026,40.023-0.02c3.586-0.012,5.164,1.661,5.141,5.026c-0.027,3.628-0.008,7.258-0.008,10.23
		c-3.969,3.783-8.768,0.965-12.539,3.551c0,9.48,0,19.121,0,28.502c3.881,2.17,8.123,0,11.535,2.488
		c1.549,1.701,0.715,3.941,1.047,5.983c1.264,7.821-1.547,10.97-10.234,10.398c-11.258-0.742-22.605-0.182-34.063-0.182
		c-2.523-5.565-1.217-10.657-1.279-15.334c3.512-3.765,8.406-0.956,12.213-3.547c0-9.228,0-18.577,0-28.005
		C751.951,418.899,747.041,421.824,743.35,418.803z"/>
	<path fill-rule="evenodd" clip-rule="evenodd" fill="#404040" d="M670.406,468.869c-13.979-0.492-25.193,1.166-36.431-1.633
		c-8.235-2.049-12.5-6.964-12.744-14.828c-0.34-10.984-0.459-22,0.021-32.973c0.438-10.004,6.289-15.139,19.083-16.276
		c9.021-0.804,18.18-0.155,27.598-0.155c2.088,5.494,0.705,10.576,1.117,15.807c-6.814,2.963-13.488,1.369-19.926,1.513
		c-5.936,0.129-8.953,2.204-8.287,8.198c0.066,0.606,0.012,1.221,0.004,1.834c-0.247,20.168-0.25,20.215,20.511,20.938
		C675.887,451.799,665.947,462.133,670.406,468.869z"/>
	<path fill-rule="evenodd" clip-rule="evenodd" fill="#404040" d="M685.465,338.081c-9.234,3.141-18.287,0.007-26.868,2.201
		c-3.339,8.911,2.862,8.24,8.283,8.056c6.382-0.22,11.968-0.679,11.261,8.689c-0.484,6.384-1.582,9.917-9.047,8.965
		c-3.379-0.431-6.865-0.073-11.458-0.073c0,7.382,0,14.219,0,21.544c-6.705,0-12.269,0-18.737,0c0-21.443,0-42.896,0-65.46
		c14.023,0,27.83,0.029,41.637-0.021c3.748-0.015,4.959,1.961,4.936,5.196C685.443,330.795,685.465,334.416,685.465,338.081z"/>
	<path fill-rule="evenodd" clip-rule="evenodd" fill="#404040" d="M694.285,322.002c16.215,0,32.615,0.026,49.016-0.021
		c3.787-0.011,4.908,2.021,4.875,5.241c-0.037,3.627-0.01,7.255-0.01,10.511c-5.396,3.234-10.748,0.79-17.078,2.771
		c0,9.68-0.148,19.928,0.033,30.17c0.326,18.555,0.408,18.555-20.477,16.619c0-15.51,0-31.208,0-46.667
		C690.975,337.637,690.975,337.637,694.285,322.002z"/>
	<path fill-rule="evenodd" clip-rule="evenodd" fill="#404040" d="M695.262,420.977c-5.795-0.395-10.742-0.732-15.25-1.039
		c-2.844-2.682-1.662-5.593-2.021-8.211c-0.896-6.519,1.289-9.404,8.783-9.02c11.674,0.604,23.477,0.947,35.086-0.077
		c10.367-0.914,12.969,3.198,11.639,11.938c-0.227,1.488-0.377,2.984-0.545,4.314c-5.117,3.154-10.902,0.146-16.623,2.719
		c0,12.844-0.395,25.969,0.145,39.058c0.348,8.462-4.639,8.313-10.83,8.304c-6.176-0.008-11.039,0.254-10.568-8.348
		C695.789,447.555,695.262,434.429,695.262,420.977z"/>
	<path fill-rule="evenodd" clip-rule="evenodd" fill="#FDFDFD" d="M322.564,387.541c-0.021-2.705-0.042-5.412-0.062-8.124
		c-0.002-1.59-0.006-3.176-0.01-4.763c0-21.386,0-42.771,0-63.328c2.57-2.613,4.892-2.198,7.05-2.197
		c30.37,0.038,60.741,0.25,91.111,0.078c7.794-0.043,10.613,2.872,10.564,10.359c-0.234,35.813-0.155,71.627-0.052,107.443
		c0.015,5.447-0.711,10.24-7.632,10.268c-33.16,0.129-66.322,0.057-101.049,0.057c0-15.323,0-30.18,0-45.042
		C322.512,390.705,322.538,389.125,322.564,387.541z"/>
	<path fill-rule="evenodd" clip-rule="evenodd" fill="#FDFDFD" d="M457.446,340.74c6.892-0.087,7.71,3.347,7.711,7.309
		c0.01,33.645,0.247,67.292-0.148,100.933c-0.149,12.609-9.125,21.086-22.542,21.326c-27.496,0.494-55.004,0.241-82.507,0.332
		c-5.023,0.017-8.105-2.291-10.2-7.828c12.289,0,23.877-0.008,35.463,0.002c14.226,0.013,28.458-0.186,42.677,0.113
		c18.224,0.38,30.095-12.318,29.713-29.133c-0.624-27.516-0.167-55.053-0.167-82.579C457.446,347.902,457.446,344.59,457.446,340.74
		z"/>
	<path fill-rule="evenodd" clip-rule="evenodd" fill="#FDFDFD" d="M329.954,446.666c30.166,0,58.562-0.008,86.956,0.002
		c19.621,0.004,23.554-3.643,23.606-22.286c0.09-32.026,0.095-64.048,0.195-96.073c0.002-0.78,0.697-1.559,1.093-2.388
		c5.821,0.567,6.191,4.534,6.192,8.677c0.007,33.956,0.131,67.91-0.087,101.865c-0.071,11.076-6.235,17.236-17.661,17.373
		c-29.715,0.354-59.436,0.143-89.154,0.385C336.119,454.259,334.091,451.098,329.954,446.666z"/>
	<path fill-rule="evenodd" clip-rule="evenodd" fill="#80DCDE" d="M322.493,374.655c0.004,1.586,0.007,3.172,0.01,4.763
		C320.652,377.838,320.756,376.248,322.493,374.655z"/>
	<path fill-rule="evenodd" clip-rule="evenodd" fill="#80DCDE" d="M322.564,387.541c-0.026,1.584-0.052,3.164-0.08,4.75
		C320.646,390.683,320.633,389.097,322.564,387.541z"/>
	<path fill-rule="evenodd" clip-rule="evenodd" fill="#FDFDFD" d="M587.143,355.216c0-2.758,0.263-5.544-0.052-8.267
		c-0.706-6.094,1.357-8.916,8.245-8.998c7.288-0.084,9.484,2.824,8.885,9.391c-0.443,4.864-0.291,9.805-0.045,14.694
		c0.294,5.875-0.43,9.879-8.349,10.017c-8.509,0.147-9.293-4.165-8.714-10.408C587.309,359.519,587.143,357.359,587.143,355.216z"/>
	<path fill-rule="evenodd" clip-rule="evenodd" fill="#FDFDFD" d="M837.859,435.645c0,2.745-0.309,5.533,0.063,8.234
		c0.943,6.902-2.217,9.164-9.082,9.098c-6.852-0.067-8.619-3.128-8.107-9.113c0.416-4.852,0.33-9.776,0.021-14.646
		c-0.385-6.145,0.148-10.549,8.578-10.537c8.408,0.012,9.121,4.402,8.561,10.554C837.697,431.355,837.859,433.505,837.859,435.645z"
		/>
	<path fill-rule="evenodd" clip-rule="evenodd" fill="#FDFDFD" d="M1033.051,419.16c3.604,0,6.977,0,10.338,0
		c2.416,3.499,1.754,6.931,0.779,10.681c-3.549,1.714-7.225,0.577-10.998,0.823C1031.465,426.673,1031.553,423.023,1033.051,419.16z
		"/>
	<path fill-rule="evenodd" clip-rule="evenodd" fill="#FDFDFD" d="M513.592,451.21c0-10.603,0-20.021,0-29.874
		c5.816-1.633,13.735-3.793,16.341,1.203c4.034,7.732,3.405,17.761,0.447,25.823C528.032,454.764,520.08,450.99,513.592,451.21z"/>
	<path fill-rule="evenodd" clip-rule="evenodd" fill="#FDFDFD" d="M978.672,435.369c-5.998,1.336-11.197,1.214-17.16,0.107
		c3.367-5.262,0.668-14.836,8.551-14.863C977.961,420.584,975.109,430.224,978.672,435.369z"/>
</g>
</svg>
